<mxfile host="app.diagrams.net" modified="2023-09-25T13:48:07.665Z" agent="Mozilla/5.0 (X11; Linux x86_64) AppleWebKit/537.36 (KHTML, like Gecko) Chrome/117.0.0.0 Safari/537.36" version="21.7.5" etag="CFP7avmGoEl0M3xs2d-a" type="github">
  <diagram name="Page-1" id="1vpmXxU6D3aCr05kxFP2">
    <mxGraphModel>
      <root>
        <mxCell id="0" />
        <mxCell id="1" parent="0" />
      </root>
    </mxGraphModel>
  </diagram>
</mxfile>
